BodoniModa-96ptBlack.ufo
<glyph name="seven" format="2">
  <advance width="1149"/>
  <unicode hex="0037"/>
  <outline>
    <contour>
      <point x="508" y="-20" type="curve" smooth="yes"/>
      <point x="656" y="-20"/>
      <point x="756" y="82"/>
      <point x="756" y="216" type="curve" smooth="yes"/>
      <point x="756" y="408"/>
      <point x="540" y="438"/>
      <point x="540" y="544" type="curve" smooth="yes"/>
      <point x="540" y="592"/>
      <point x="570" y="624"/>
      <point x="676" y="776" type="curve" smooth="yes"/>
      <point x="850" y="1024"/>
      <point x="1130" y="1500"/>
      <point x="1130" y="1500" type="curve"/>
      <point x="80" y="1500" type="line"/>
      <point x="80" y="920" type="line"/>
      <point x="84" y="920" type="line"/>
      <point x="84" y="1070" type="line"/>
      <point x="862" y="1070" type="line"/>
      <point x="754" y="896"/>
      <point x="710" y="838"/>
      <point x="652" y="756" type="curve" smooth="yes"/>
      <point x="498" y="538"/>
      <point x="256" y="370"/>
      <point x="256" y="212" type="curve" smooth="yes"/>
      <point x="256" y="54"/>
      <point x="370" y="-20"/>
    </contour>
  </outline>
</glyph>
<glyph name="eight" format="2">
  <advance width="1299"/>
  <unicode hex="0038"/>
  <outline>
    <contour>
      <point x="650" y="-20" type="curve" smooth="yes"/>
      <point x="1032" y="-20"/>
      <point x="1220" y="140"/>
      <point x="1220" y="380" type="curve" smooth="yes"/>
      <point x="1220" y="609"/>
      <point x="1049" y="757"/>
      <point x="702" y="770" type="curve"/>
      <point x="1011" y="783"/>
      <point x="1180" y="911"/>
      <point x="1180" y="1120" type="curve" smooth="yes"/>
      <point x="1180" y="1340"/>
      <point x="992" y="1520"/>
      <point x="650" y="1520" type="curve" smooth="yes"/>
      <point x="308" y="1520"/>
      <point x="120" y="1340"/>
      <point x="120" y="1120" type="curve" smooth="yes"/>
      <point x="120" y="911"/>
      <point x="289" y="783"/>
      <point x="598" y="770" type="curve"/>
      <point x="251" y="757"/>
      <point x="80" y="609"/>
      <point x="80" y="380" type="curve" smooth="yes"/>
      <point x="80" y="140"/>
      <point x="268" y="-20"/>
    </contour>
    <contour>
      <point x="650" y="-16" type="curve" smooth="yes"/>
      <point x="552" y="-16"/>
      <point x="520" y="152"/>
      <point x="520" y="380" type="curve" smooth="yes"/>
      <point x="520" y="608"/>
      <point x="552" y="768"/>
      <point x="650" y="768" type="curve" smooth="yes"/>
      <point x="748" y="768"/>
      <point x="780" y="608"/>
      <point x="780" y="380" type="curve" smooth="yes"/>
      <point x="780" y="152"/>
      <point x="748" y="-16"/>
    </contour>
    <contour>
      <point x="650" y="772" type="curve" smooth="yes"/>
      <point x="592" y="772"/>
      <point x="560" y="852"/>
      <point x="560" y="1120" type="curve" smooth="yes"/>
      <point x="560" y="1368"/>
      <point x="592" y="1516"/>
      <point x="650" y="1516" type="curve" smooth="yes"/>
      <point x="708" y="1516"/>
      <point x="740" y="1368"/>
      <point x="740" y="1120" type="curve" smooth="yes"/>
      <point x="740" y="852"/>
      <point x="708" y="772"/>
    </contour>
  </outline>
</glyph>
<glyph name="nine" format="2">
  <advance width="1318"/>
  <unicode hex="0039"/>
  <outline>
    <contour>
      <point x="210" y="-20" type="line"/>
      <point x="816" y="-20"/>
      <point x="1220" y="394"/>
      <point x="1220" y="880" type="curve" smooth="yes"/>
      <point x="1220" y="1300"/>
      <point x="974" y="1520"/>
      <point x="632" y="1520" type="curve" smooth="yes"/>
      <point x="290" y="1520"/>
      <point x="60" y="1300"/>
      <point x="60" y="1000" type="curve" smooth="yes"/>
      <point x="60" y="660"/>
      <point x="316" y="510"/>
      <point x="558" y="510" type="curve" smooth="yes"/>
      <point x="756" y="510"/>
      <point x="764" y="646"/>
      <point x="764" y="940" type="curve"/>
      <point x="760" y="940" type="line"/>
      <point x="760" y="640"/>
      <point x="738" y="544"/>
      <point x="634" y="544" type="curve" smooth="yes"/>
      <point x="556" y="544"/>
      <point x="520" y="632"/>
      <point x="520" y="1000" type="curve" smooth="yes"/>
      <point x="520" y="1328"/>
      <point x="528" y="1516"/>
      <point x="626" y="1516" type="curve" smooth="yes"/>
      <point x="724" y="1516"/>
      <point x="760" y="1308"/>
      <point x="760" y="940" type="curve"/>
      <point x="760" y="820" type="line"/>
      <point x="760" y="396"/>
      <point x="578" y="-16"/>
      <point x="210" y="-16" type="curve"/>
    </contour>
  </outline>
</glyph>
<glyph name="I" format="2">
  <advance width="949"/>
  <unicode hex="0049"/>
  <anchor x="466" y="0" name="bottom"/>
  <anchor x="548" y="0" name="ogonek"/>
  <anchor x="462" y="1500" name="top"/>
  <outline>
    <contour>
      <point x="30" y="0" type="line"/>
      <point x="920" y="0" type="line"/>
      <point x="920" y="4" type="line"/>
      <point x="680" y="4" type="line"/>
      <point x="680" y="1496" type="line"/>
      <point x="920" y="1496" type="line"/>
      <point x="920" y="1500" type="line"/>
      <point x="30" y="1500" type="line"/>
      <point x="30" y="1496" type="line"/>
      <point x="250" y="1496" type="line"/>
      <point x="250" y="4" type="line"/>
      <point x="30" y="4" type="line"/>
    </contour>
  </outline>
</glyph>
<glyph name="J" format="2">
  <advance width="1280"/>
  <unicode hex="004A"/>
  <anchor x="438" y="0" name="bottom"/>
  <anchor x="806" y="1500" name="top"/>
  <outline>
    <contour>
      <point x="1248" y="1500" type="line"/>
      <point x="359" y="1500" type="line"/>
      <point x="359" y="1496" type="line"/>
      <point x="619" y="1496" type="line"/>
      <point x="619" y="380" type="line" smooth="yes"/>
      <point x="619" y="101"/>
      <point x="582" y="-51"/>
      <point x="419" y="-51" type="curve" smooth="yes"/>
      <point x="248" y="-51"/>
      <point x="49" y="28"/>
      <point x="23" y="212" type="curve"/>
      <point x="47" y="117"/>
      <point x="153" y="38"/>
      <point x="260" y="38" type="curve" smooth="yes"/>
      <point x="389" y="38"/>
      <point x="503" y="127"/>
      <point x="503" y="263" type="curve" smooth="yes"/>
      <point x="503" y="405"/>
      <point x="380" y="495"/>
      <point x="260" y="495" type="curve" smooth="yes"/>
      <point x="129" y="495"/>
      <point x="16" y="394"/>
      <point x="16" y="250" type="curve" smooth="yes"/>
      <point x="16" y="50"/>
      <point x="214" y="-61"/>
      <point x="468" y="-61" type="curve" smooth="yes"/>
      <point x="766" y="-61"/>
      <point x="938" y="99"/>
      <point x="1048" y="340" type="curve"/>
      <point x="1048" y="1496" type="line"/>
      <point x="1248" y="1496" type="line"/>
    </contour>
  </outline>
</glyph>
<glyph name="N" format="2">
  <advance width="1529"/>
  <unicode hex="004E"/>
  <anchor x="786" y="0" name="bottom"/>
  <anchor x="814" y="1500" name="top"/>
  <outline>
    <contour>
      <point x="232" y="1500" type="line"/>
      <point x="30" y="1500" type="line"/>
      <point x="30" y="1496" type="line"/>
      <point x="228" y="1496" type="line"/>
      <point x="228" y="4" type="line"/>
      <point x="30" y="4" type="line"/>
      <point x="30" y="0" type="line"/>
      <point x="454" y="0" type="line"/>
      <point x="454" y="4" type="line"/>
      <point x="232" y="4" type="line"/>
    </contour>
    <contour>
      <point x="1500" y="1500" type="line"/>
      <point x="1066" y="1500" type="line"/>
      <point x="1066" y="1496" type="line"/>
      <point x="1286" y="1496" type="line"/>
      <point x="1286" y="714" type="line"/>
      <point x="740" y="1500" type="line"/>
      <point x="230" y="1500" type="line"/>
      <point x="1286" y="-20" type="line"/>
      <point x="1290" y="-20" type="line"/>
      <point x="1290" y="1496" type="line"/>
      <point x="1500" y="1496" type="line"/>
    </contour>
  </outline>
</glyph>
<glyph name="S" format="2">
  <advance width="1269"/>
  <unicode hex="0053"/>
  <anchor x="673" y="-27" name="bottom"/>
  <anchor x="614" y="1500" name="top"/>
  <outline>
    <contour>
      <point x="650" y="-30" type="curve" smooth="yes"/>
      <point x="932" y="-30"/>
      <point x="1190" y="160"/>
      <point x="1190" y="460" type="curve" smooth="yes"/>
      <point x="1190" y="1060"/>
      <point x="380" y="980"/>
      <point x="380" y="1290" type="curve" smooth="yes"/>
      <point x="380" y="1408"/>
      <point x="442" y="1516"/>
      <point x="574" y="1516" type="curve" smooth="yes"/>
      <point x="830" y="1516"/>
      <point x="984" y="1310"/>
      <point x="1104" y="1030" type="curve"/>
      <point x="1110" y="1030" type="line"/>
      <point x="1110" y="1520" type="line"/>
      <point x="1106" y="1520" type="line"/>
      <point x="849" y="1420" type="line"/>
      <point x="772" y="1484"/>
      <point x="681" y="1520"/>
      <point x="574" y="1520" type="curve" smooth="yes"/>
      <point x="332" y="1520"/>
      <point x="100" y="1370"/>
      <point x="100" y="1090" type="curve" smooth="yes"/>
      <point x="100" y="450"/>
      <point x="910" y="600"/>
      <point x="910" y="250" type="curve" smooth="yes"/>
      <point x="910" y="112"/>
      <point x="822" y="-26"/>
      <point x="650" y="-26" type="curve" smooth="yes"/>
      <point x="344" y="-26"/>
      <point x="194" y="270"/>
      <point x="86" y="510" type="curve"/>
      <point x="80" y="510" type="line"/>
      <point x="80" y="-20" type="line"/>
      <point x="84" y="-20" type="line"/>
      <point x="351" y="87" type="line"/>
      <point x="430" y="16"/>
      <point x="528" y="-30"/>
    </contour>
  </outline>
</glyph>
<glyph name="T" format="2">
  <advance width="1449"/>
  <unicode hex="0054"/>
  <anchor x="725" y="0" name="bottom"/>
  <anchor x="734" y="1500" name="top"/>
  <outline>
    <contour>
      <point x="290" y="0" type="line"/>
      <point x="1160" y="0" type="line"/>
      <point x="1160" y="4" type="line"/>
      <point x="940" y="4" type="line"/>
      <point x="940" y="1496" type="line"/>
      <point x="1000" y="1496" type="line" smooth="yes"/>
      <point x="1194" y="1496"/>
      <point x="1356" y="1244"/>
      <point x="1416" y="990" type="curve"/>
      <point x="1420" y="990" type="line"/>
      <point x="1420" y="1500" type="line"/>
      <point x="30" y="1500" type="line"/>
      <point x="30" y="990" type="line"/>
      <point x="34" y="990" type="line"/>
      <point x="94" y="1244"/>
      <point x="256" y="1496"/>
      <point x="450" y="1496" type="curve" smooth="yes"/>
      <point x="510" y="1496" type="line"/>
      <point x="510" y="4" type="line"/>
      <point x="290" y="4" type="line"/>
    </contour>
  </outline>
</glyph>
<glyph name="W" format="2">
  <advance width="2459"/>
  <unicode hex="0057"/>
  <anchor x="1296" y="0" name="bottom"/>
  <anchor x="1354" y="1500" name="top"/>
  <outline>
    <contour>
      <point x="790" y="-20" type="line"/>
      <point x="952" y="-20" type="line"/>
      <point x="1267" y="791" type="line"/>
      <point x="1264" y="797" type="line"/>
      <point x="1112" y="406" type="line"/>
      <point x="664" y="1496" type="line"/>
      <point x="920" y="1496" type="line"/>
      <point x="1552" y="-20" type="line"/>
      <point x="1652" y="-20" type="line"/>
      <point x="2242" y="1496" type="line"/>
      <point x="2440" y="1496" type="line"/>
      <point x="2440" y="1500" type="line"/>
      <point x="2040" y="1500" type="line"/>
      <point x="2040" y="1496" type="line"/>
      <point x="2238" y="1496" type="line"/>
      <point x="1812" y="406" type="line"/>
      <point x="1364" y="1496" type="line"/>
      <point x="1960" y="1496" type="line"/>
      <point x="1960" y="1500" type="line"/>
      <point x="20" y="1500" type="line"/>
      <point x="20" y="1496" type="line"/>
      <point x="160" y="1496" type="line"/>
    </contour>
    <contour>
      <point x="1524" y="912" type="line"/>
      <point x="1762" y="1498" type="line"/>
      <point x="1758" y="1498" type="line"/>
      <point x="1520" y="915" type="line"/>
    </contour>
  </outline>
</glyph>
<glyph name="Y" format="2">
  <advance width="1529"/>
  <unicode hex="0059"/>
  <anchor x="776" y="0" name="bottom"/>
  <anchor x="854" y="1500" name="top"/>
  <outline>
    <contour>
      <point x="390" y="0" type="line"/>
      <point x="1200" y="0" type="line"/>
      <point x="1200" y="4" type="line"/>
      <point x="1000" y="4" type="line"/>
      <point x="1000" y="766" type="line"/>
      <point x="1326" y="1496" type="line"/>
      <point x="1510" y="1496" type="line"/>
      <point x="1510" y="1500" type="line"/>
      <point x="1090" y="1500" type="line"/>
      <point x="1090" y="1496" type="line"/>
      <point x="1320" y="1496" type="line"/>
      <point x="996" y="768" type="line"/>
      <point x="642" y="1496" type="line"/>
      <point x="840" y="1496" type="line"/>
      <point x="840" y="1500" type="line"/>
      <point x="20" y="1500" type="line"/>
      <point x="20" y="1496" type="line"/>
      <point x="142" y="1496" type="line"/>
      <point x="570" y="720" type="line"/>
      <point x="570" y="4" type="line"/>
      <point x="390" y="4" type="line"/>
    </contour>
  </outline>
</glyph>
<glyph name="Z" format="2">
  <advance width="1349"/>
  <unicode hex="005A"/>
  <anchor x="626" y="0" name="bottom"/>
  <anchor x="674" y="1500" name="top"/>
  <outline>
    <contour>
      <point x="20" y="0" type="line"/>
      <point x="1280" y="0" type="line"/>
      <point x="1280" y="440" type="line"/>
      <point x="1276" y="440" type="line"/>
      <point x="1196" y="186"/>
      <point x="1074" y="4"/>
      <point x="800" y="4" type="curve" smooth="yes"/>
      <point x="510" y="4" type="line"/>
      <point x="1260" y="1496" type="line"/>
      <point x="1260" y="1500" type="line"/>
      <point x="60" y="1500" type="line"/>
      <point x="60" y="1100" type="line"/>
      <point x="64" y="1100" type="line"/>
      <point x="144" y="1314"/>
      <point x="266" y="1496"/>
      <point x="540" y="1496" type="curve" smooth="yes"/>
      <point x="770" y="1496" type="line"/>
      <point x="20" y="4" type="line"/>
    </contour>
  </outline>
</glyph>
<glyph name="bracketright" format="2">
  <advance width="768"/>
  <unicode hex="005D"/>
  <outline>
    <contour>
      <point x="240" y="-300" type="line"/>
      <point x="660" y="-300" type="line"/>
      <point x="660" y="1560" type="line"/>
      <point x="240" y="1560" type="line"/>
    </contour>
    <contour>
      <point x="60" y="-300" type="line"/>
      <point x="660" y="-300" type="line"/>
      <point x="660" y="-296" type="line"/>
      <point x="60" y="-296" type="line"/>
    </contour>
    <contour>
      <point x="60" y="1556" type="line"/>
      <point x="660" y="1556" type="line"/>
      <point x="660" y="1560" type="line"/>
      <point x="60" y="1560" type="line"/>
    </contour>
  </outline>
</glyph>
<glyph name="u" format="2">
  <advance width="1309"/>
  <unicode hex="0075"/>
  <anchor x="656" y="0" name="bottom"/>
  <anchor x="1048" y="0" name="ogonek"/>
  <anchor x="626" y="920" name="top"/>
  <outline>
    <contour>
      <point x="444" y="-20" type="curve" smooth="yes"/>
      <point x="730" y="-20"/>
      <point x="774" y="268"/>
      <point x="774" y="474" type="curve"/>
      <point x="770" y="474" type="line"/>
      <point x="770" y="292"/>
      <point x="724" y="76"/>
      <point x="612" y="76" type="curve" smooth="yes"/>
      <point x="556" y="76"/>
      <point x="540" y="96"/>
      <point x="540" y="264" type="curve" smooth="yes"/>
      <point x="540" y="920" type="line"/>
      <point x="20" y="920" type="line"/>
      <point x="20" y="916" type="line"/>
      <point x="160" y="916" type="line"/>
      <point x="160" y="282" type="line" smooth="yes"/>
      <point x="160" y="108"/>
      <point x="230" y="-20"/>
    </contour>
    <contour>
      <point x="770" y="0" type="line"/>
      <point x="1290" y="0" type="line"/>
      <point x="1290" y="4" type="line"/>
      <point x="1150" y="4" type="line"/>
      <point x="1150" y="920" type="line"/>
      <point x="650" y="920" type="line"/>
      <point x="650" y="916" type="line"/>
      <point x="770" y="916" type="line"/>
    </contour>
  </outline>
</glyph>
<glyph name="x" format="2">
  <advance width="1187"/>
  <unicode hex="0078"/>
  <anchor x="536" y="0" name="bottom"/>
  <anchor x="636" y="920" name="top"/>
  <outline>
    <contour>
      <point x="496" y="0" type="line"/>
      <point x="1178" y="0" type="line"/>
      <point x="1178" y="4" type="line"/>
      <point x="1086" y="4" type="line"/>
      <point x="542" y="916" type="line"/>
      <point x="682" y="916" type="line"/>
      <point x="682" y="920" type="line"/>
      <point x="10" y="920" type="line"/>
      <point x="10" y="916" type="line"/>
      <point x="122" y="916" type="line"/>
      <point x="646" y="4" type="line"/>
      <point x="496" y="4" type="line"/>
    </contour>
    <contour>
      <point x="10" y="0" type="line"/>
      <point x="388" y="0" type="line"/>
      <point x="388" y="4" type="line"/>
      <point x="170" y="4" type="line"/>
      <point x="984" y="916" type="line"/>
      <point x="1158" y="916" type="line"/>
      <point x="1158" y="920" type="line"/>
      <point x="810" y="920" type="line"/>
      <point x="810" y="916" type="line"/>
      <point x="978" y="916" type="line"/>
      <point x="164" y="4" type="line"/>
      <point x="10" y="4" type="line"/>
    </contour>
  </outline>
</glyph>
<glyph name="y" format="2">
  <advance width="1310"/>
  <unicode hex="0079"/>
  <anchor x="576" y="-500" name="bottom"/>
  <anchor x="676" y="920" name="top"/>
  <outline>
    <contour>
      <point x="583" y="916" type="line"/>
      <point x="815" y="916" type="line"/>
      <point x="815" y="920" type="line"/>
      <point x="-29" y="920" type="line"/>
      <point x="-29" y="916" type="line"/>
      <point x="114" y="916" type="line"/>
      <point x="656" y="-54" type="line"/>
      <point x="871" y="371" type="line"/>
    </contour>
    <contour>
      <point x="1340" y="920" type="line"/>
      <point x="917" y="920" type="line"/>
      <point x="917" y="916" type="line"/>
      <point x="1144" y="916" type="line"/>
      <point x="492" y="-376" type="line"/>
      <point x="534" y="-230"/>
      <point x="425" y="-114"/>
      <point x="308" y="-114" type="curve" smooth="yes"/>
      <point x="194" y="-114"/>
      <point x="97" y="-199"/>
      <point x="97" y="-315" type="curve" smooth="yes"/>
      <point x="97" y="-441"/>
      <point x="190" y="-510"/>
      <point x="290" y="-510" type="curve" smooth="yes"/>
      <point x="396" y="-510"/>
      <point x="456" y="-453"/>
      <point x="490" y="-386" type="curve" smooth="yes"/>
      <point x="1148" y="916" type="line"/>
      <point x="1340" y="916" type="line"/>
    </contour>
  </outline>
</glyph>
<glyph name="bar" format="2">
  <advance width="459"/>
  <unicode hex="007C"/>
  <outline>
    <contour>
      <point x="228" y="-500" type="line"/>
      <point x="232" y="-500" type="line"/>
      <point x="232" y="1560" type="line"/>
      <point x="228" y="1560" type="line"/>
    </contour>
  </outline>
</glyph>
<glyph name="yen" format="2">
  <advance width="1529"/>
  <unicode hex="00A5"/>
  <anchor x="776" y="0" name="bottom"/>
  <anchor x="854" y="1500" name="top"/>
  <outline>
    <contour>
      <point x="570" y="0" type="line"/>
      <point x="1000" y="0" type="line"/>
      <point x="1000" y="766" type="line"/>
      <point x="1326" y="1496" type="line"/>
      <point x="1320" y="1496" type="line"/>
      <point x="996" y="768" type="line"/>
      <point x="640" y="1500" type="line"/>
      <point x="140" y="1500" type="line"/>
      <point x="570" y="720" type="line"/>
    </contour>
    <contour>
      <point x="390" y="0" type="line"/>
      <point x="1200" y="0" type="line"/>
      <point x="1200" y="4" type="line"/>
      <point x="390" y="4" type="line"/>
    </contour>
    <contour>
      <point x="220" y="338" type="line"/>
      <point x="1330.006" y="338" type="line"/>
      <point x="1330.006" y="342" type="line"/>
      <point x="220" y="342" type="line"/>
    </contour>
    <contour>
      <point x="220" y="639" type="line"/>
      <point x="1330.006" y="639" type="line"/>
      <point x="1330.006" y="643" type="line"/>
      <point x="220" y="643" type="line"/>
    </contour>
    <contour>
      <point x="20" y="1496" type="line"/>
      <point x="840" y="1496" type="line"/>
      <point x="840" y="1500" type="line"/>
      <point x="20" y="1500" type="line"/>
    </contour>
    <contour>
      <point x="1090" y="1496" type="line"/>
      <point x="1510" y="1496" type="line"/>
      <point x="1510" y="1500" type="line"/>
      <point x="1090" y="1500" type="line"/>
    </contour>
  </outline>
</glyph>
<glyph name="copyright" format="2">
  <advance width="1739"/>
  <unicode hex="00A9"/>
  <anchor x="883" y="1200" name="top"/>
  <outline>
    <contour>
      <point x="895" y="294" type="curve" smooth="yes"/>
      <point x="746" y="294"/>
      <point x="709" y="532"/>
      <point x="709" y="750" type="curve" smooth="yes"/>
      <point x="709" y="968"/>
      <point x="746" y="1206"/>
      <point x="895" y="1206" type="curve" smooth="yes"/>
      <point x="1031" y="1206"/>
      <point x="1116" y="1082"/>
      <point x="1196" y="918" type="curve"/>
      <point x="1201" y="918" type="line"/>
      <point x="1201" y="1200" type="line"/>
      <point x="1199" y="1200" type="line"/>
      <point x="1051" y="1146" type="line"/>
      <point x="1005" y="1188"/>
      <point x="952" y="1212"/>
      <point x="883" y="1212" type="curve" smooth="yes"/>
      <point x="591" y="1212"/>
      <point x="427" y="1018"/>
      <point x="427" y="750" type="curve" smooth="yes"/>
      <point x="427" y="482"/>
      <point x="591" y="288"/>
      <point x="883" y="288" type="curve" smooth="yes"/>
      <point x="965" y="288"/>
      <point x="1027" y="316"/>
      <point x="1078" y="363" type="curve"/>
      <point x="1211" y="300" type="line"/>
      <point x="1213" y="300" type="line"/>
      <point x="1213" y="582" type="line"/>
      <point x="1209" y="582" type="line"/>
      <point x="1142" y="424"/>
      <point x="1056" y="294"/>
    </contour>
    <contour>
      <point x="870" y="1520" type="curve" smooth="yes"/>
      <point x="444" y="1520"/>
      <point x="100" y="1176"/>
      <point x="100" y="750" type="curve" smooth="yes"/>
      <point x="100" y="324"/>
      <point x="444" y="-20"/>
      <point x="870" y="-20" type="curve" smooth="yes"/>
      <point x="1296" y="-20"/>
      <point x="1640" y="324"/>
      <point x="1640" y="750" type="curve" smooth="yes"/>
      <point x="1640" y="1176"/>
      <point x="1296" y="1520"/>
    </contour>
    <contour>
      <point x="870" y="-16" type="curve" smooth="yes"/>
      <point x="448" y="-16"/>
      <point x="104" y="328"/>
      <point x="104" y="750" type="curve" smooth="yes"/>
      <point x="104" y="1172"/>
      <point x="448" y="1516"/>
      <point x="870" y="1516" type="curve" smooth="yes"/>
      <point x="1292" y="1516"/>
      <point x="1636" y="1172"/>
      <point x="1636" y="750" type="curve" smooth="yes"/>
      <point x="1636" y="328"/>
      <point x="1292" y="-16"/>
    </contour>
  </outline>
</glyph>
<glyph name="guillemetleft" format="2">
  <advance width="1509"/>
  <unicode hex="00AB"/>
  <outline>
    <contour>
      <point x="1390" y="290" type="line"/>
      <point x="1392" y="292" type="line"/>
      <point x="1102" y="776" type="line"/>
      <point x="1392" y="1258" type="line"/>
      <point x="1390" y="1260" type="line"/>
      <point x="610" y="780" type="line"/>
      <point x="610" y="770" type="line"/>
    </contour>
    <contour>
      <point x="830" y="290" type="line"/>
      <point x="832" y="292" type="line"/>
      <point x="502" y="776" type="line"/>
      <point x="832" y="1258" type="line"/>
      <point x="830" y="1260" type="line"/>
      <point x="50" y="780" type="line"/>
      <point x="50" y="770" type="line"/>
    </contour>
  </outline>
</glyph>
<glyph name="twosuperior" format="2">
  <advance width="938"/>
  <unicode hex="00B2"/>
  <outline>
    <contour>
      <point x="142" y="918" type="line"/>
      <point x="831.4" y="918" type="line"/>
      <point x="831.4" y="1260" type="line"/>
      <point x="829" y="1260" type="line"/>
      <point x="829" y="1170" type="line"/>
      <point x="290.8" y="1170" type="line"/>
      <point x="514" y="1308" type="line" smooth="yes"/>
      <point x="628.6" y="1378.8"/>
      <point x="806.8" y="1446.6"/>
      <point x="806.8" y="1602.6" type="curve" smooth="yes"/>
      <point x="806.8" y="1734.6"/>
      <point x="683.2" y="1830"/>
      <point x="484" y="1830" type="curve" smooth="yes"/>
      <point x="286.6" y="1830"/>
      <point x="152.2" y="1720.8"/>
      <point x="152.2" y="1568.4" type="curve" smooth="yes"/>
      <point x="152.2" y="1470"/>
      <point x="226" y="1406.4"/>
      <point x="304" y="1406.4" type="curve" smooth="yes"/>
      <point x="382" y="1406.4"/>
      <point x="451" y="1465.2"/>
      <point x="451" y="1549.2" type="curve" smooth="yes"/>
      <point x="451" y="1627.2"/>
      <point x="380.2" y="1688.4"/>
      <point x="308.8" y="1688.4" type="curve" smooth="yes"/>
      <point x="233.2" y="1688.4"/>
      <point x="153.4" y="1628.4"/>
      <point x="153.4" y="1568.4" type="curve"/>
      <point x="154.6" y="1568.4" type="line"/>
      <point x="154.6" y="1706.4"/>
      <point x="271.6" y="1802.4"/>
      <point x="385" y="1802.4" type="curve" smooth="yes"/>
      <point x="488.2" y="1802.4"/>
      <point x="542.8" y="1675.8"/>
      <point x="542.8" y="1530" type="curve" smooth="yes"/>
      <point x="542.8" y="1381.2"/>
      <point x="490" y="1298.4"/>
      <point x="390.4" y="1236" type="curve" smooth="yes"/>
      <point x="142" y="1080" type="line"/>
    </contour>
  </outline>
</glyph>
<glyph name="onehalf" format="2">
  <advance width="1459"/>
  <unicode hex="00BD"/>
  <outline>
    <contour>
      <point x="80" y="-200" type="line"/>
      <point x="84" y="-200" type="line"/>
      <point x="1052" y="1300" type="line"/>
      <point x="1048" y="1300" type="line"/>
    </contour>
    <contour>
      <point x="44" y="712" type="line"/>
      <point x="590" y="712" type="line"/>
      <point x="590" y="714.4" type="line"/>
      <point x="44" y="714.4" type="line"/>
    </contour>
    <contour>
      <point x="730" y="-202" type="line"/>
      <point x="1419.4" y="-202" type="line"/>
      <point x="1419.4" y="140" type="line"/>
      <point x="1417" y="140" type="line"/>
      <point x="1417" y="50" type="line"/>
      <point x="878.8" y="50" type="line"/>
      <point x="1102" y="188" type="line" smooth="yes"/>
      <point x="1216.6" y="258.8"/>
      <point x="1394.8" y="326.6"/>
      <point x="1394.8" y="482.6" type="curve" smooth="yes"/>
      <point x="1394.8" y="614.6"/>
      <point x="1271.2" y="710"/>
      <point x="1072" y="710" type="curve" smooth="yes"/>
      <point x="874.6" y="710"/>
      <point x="740.2" y="600.8"/>
      <point x="740.2" y="448.4" type="curve" smooth="yes"/>
      <point x="740.2" y="350"/>
      <point x="814" y="286.4"/>
      <point x="892" y="286.4" type="curve" smooth="yes"/>
      <point x="970" y="286.4"/>
      <point x="1039" y="345.2"/>
      <point x="1039" y="429.2" type="curve" smooth="yes"/>
      <point x="1039" y="507.2"/>
      <point x="968.2" y="568.4"/>
      <point x="896.8" y="568.4" type="curve" smooth="yes"/>
      <point x="821.2" y="568.4"/>
      <point x="741.4" y="508.4"/>
      <point x="741.4" y="448.4" type="curve"/>
      <point x="742.6" y="448.4" type="line"/>
      <point x="742.6" y="586.4"/>
      <point x="859.6" y="682.4"/>
      <point x="973" y="682.4" type="curve" smooth="yes"/>
      <point x="1076.2" y="682.4"/>
      <point x="1130.8" y="555.8"/>
      <point x="1130.8" y="410" type="curve" smooth="yes"/>
      <point x="1130.8" y="261.2"/>
      <point x="1078" y="178.4"/>
      <point x="978.4" y="116" type="curve" smooth="yes"/>
      <point x="730" y="-40" type="line"/>
    </contour>
    <contour>
      <point x="200" y="713.2" type="line"/>
      <point x="458" y="713.2" type="line"/>
      <point x="458" y="1612" type="line"/>
      <point x="64.4" y="1612" type="line"/>
      <point x="64.4" y="1609.6" type="line"/>
      <point x="200" y="1609.6" type="line"/>
    </contour>
  </outline>
</glyph>
<glyph name="Tbar" format="2">
  <advance width="1428"/>
  <unicode hex="0166"/>
  <outline>
    <contour>
      <point x="291.001" y="664" type="line"/>
      <point x="1159.998" y="664" type="line"/>
      <point x="1159.998" y="668" type="line"/>
      <point x="291.001" y="668" type="line"/>
    </contour>
    <component base="T"/>
  </outline>
</glyph>
<glyph name="acutecomb" format="2">
  <unicode hex="0301"/>
  <anchor x="390" y="1500" name="_top"/>
  <outline>
    <contour>
      <point x="267" y="1680" type="line"/>
      <point x="559" y="1718" type="line" smooth="yes"/>
      <point x="718" y="1739"/>
      <point x="775" y="1905"/>
      <point x="709" y="2001" type="curve" smooth="yes"/>
      <point x="655" y="2079"/>
      <point x="479" y="2104"/>
      <point x="404" y="1956" type="curve" smooth="yes"/>
      <point x="265" y="1683" type="line"/>
    </contour>
  </outline>
</glyph>
<glyph name="dieresiscomb" format="2">
  <unicode hex="0308"/>
  <anchor x="500" y="1500" name="_top"/>
  <outline>
    <contour>
      <point x="714" y="1680" type="curve" smooth="yes"/>
      <point x="788" y="1680"/>
      <point x="849" y="1740"/>
      <point x="849" y="1814" type="curve" smooth="yes"/>
      <point x="849" y="1888"/>
      <point x="788" y="1949"/>
      <point x="714" y="1949" type="curve" smooth="yes"/>
      <point x="640" y="1949"/>
      <point x="580" y="1888"/>
      <point x="580" y="1814" type="curve" smooth="yes"/>
      <point x="580" y="1740"/>
      <point x="640" y="1680"/>
    </contour>
    <contour>
      <point x="286" y="1680" type="curve" smooth="yes"/>
      <point x="360" y="1680"/>
      <point x="421" y="1740"/>
      <point x="421" y="1814" type="curve" smooth="yes"/>
      <point x="421" y="1888"/>
      <point x="360" y="1949"/>
      <point x="286" y="1949" type="curve" smooth="yes"/>
      <point x="212" y="1949"/>
      <point x="152" y="1888"/>
      <point x="152" y="1814" type="curve" smooth="yes"/>
      <point x="152" y="1740"/>
      <point x="212" y="1680"/>
    </contour>
  </outline>
</glyph>
<glyph name="hungarumlautcomb" format="2">
  <unicode hex="030B"/>
  <anchor x="398" y="1502" name="_top"/>
  <outline>
    <contour>
      <point x="12" y="1680" type="line"/>
      <point x="304" y="1718" type="line" smooth="yes"/>
      <point x="464" y="1739"/>
      <point x="520" y="1905"/>
      <point x="454" y="2001" type="curve" smooth="yes"/>
      <point x="400" y="2079"/>
      <point x="225" y="2104"/>
      <point x="149" y="1956" type="curve" smooth="yes"/>
      <point x="10" y="1683" type="line"/>
    </contour>
    <contour>
      <point x="522" y="1680" type="line"/>
      <point x="814" y="1718" type="line" smooth="yes"/>
      <point x="974" y="1739"/>
      <point x="1030" y="1905"/>
      <point x="964" y="2001" type="curve" smooth="yes"/>
      <point x="910" y="2079"/>
      <point x="735" y="2104"/>
      <point x="659" y="1956" type="curve" smooth="yes"/>
      <point x="520" y="1683" type="line"/>
    </contour>
  </outline>
</glyph>
<glyph name="caroncomb" format="2">
  <unicode hex="030C"/>
  <anchor x="499" y="1500" name="_top"/>
  <outline>
    <contour>
      <point x="395" y="1700" type="line"/>
      <point x="605" y="1700" type="line"/>
      <point x="865" y="2020" type="line"/>
      <point x="863" y="2022" type="line"/>
      <point x="501" y="1890" type="line"/>
      <point x="137" y="2022" type="line"/>
      <point x="135" y="2020" type="line"/>
    </contour>
  </outline>
</glyph>
<glyph name="commaturnedabovecomb" format="2">
  <unicode hex="0312"/>
  <anchor x="503" y="920" name="_top"/>
  <outline>
    <contour>
      <point x="504" y="1134" type="curve" smooth="yes"/>
      <point x="613" y="1134"/>
      <point x="707" y="1224"/>
      <point x="707" y="1325" type="curve" smooth="yes"/>
      <point x="707" y="1425"/>
      <point x="635" y="1515"/>
      <point x="518" y="1515" type="curve" smooth="yes"/>
      <point x="416" y="1515"/>
      <point x="308" y="1424"/>
      <point x="308" y="1304" type="curve"/>
      <point x="309" y="1304" type="line"/>
      <point x="260" y="1587"/>
      <point x="459" y="1745"/>
      <point x="710" y="1745" type="curve"/>
      <point x="710" y="1749" type="line"/>
      <point x="462" y="1749"/>
      <point x="296" y="1605"/>
      <point x="296" y="1381" type="curve" smooth="yes"/>
      <point x="296" y="1232"/>
      <point x="393" y="1134"/>
    </contour>
  </outline>
</glyph>
<glyph name="cedillacomb" format="2">
  <unicode hex="0327"/>
  <anchor x="475" y="0" name="_bottom"/>
  <outline>
    <contour>
      <point x="271" y="-510" type="line"/>
      <point x="633" y="-510"/>
      <point x="729" y="-410"/>
      <point x="729" y="-310" type="curve" smooth="yes"/>
      <point x="729" y="-198"/>
      <point x="593" y="-154"/>
      <point x="349" y="-148" type="curve"/>
      <point x="457" y="0" type="line"/>
      <point x="451" y="0" type="line"/>
      <point x="283" y="-228" type="line"/>
      <point x="353" y="-228"/>
      <point x="427" y="-244"/>
      <point x="427" y="-350" type="curve" smooth="yes"/>
      <point x="427" y="-438"/>
      <point x="389" y="-506"/>
      <point x="271" y="-506" type="curve"/>
    </contour>
  </outline>
</glyph>
<glyph name="ogonekcomb" format="2">
  <unicode hex="0328"/>
  <anchor x="610" y="37" name="_ogonek"/>
  <outline>
    <contour>
      <point x="503" y="-437" type="curve" smooth="yes"/>
      <point x="705" y="-437"/>
      <point x="743" y="-347"/>
      <point x="773" y="-291" type="curve"/>
      <point x="771" y="-289" type="line"/>
      <point x="741" y="-347"/>
      <point x="715" y="-385"/>
      <point x="671" y="-385" type="curve" smooth="yes"/>
      <point x="623" y="-385"/>
      <point x="573" y="-329"/>
      <point x="573" y="-195" type="curve" smooth="yes"/>
      <point x="573" y="-49"/>
      <point x="625" y="43"/>
      <point x="647" y="57" type="curve"/>
      <point x="645" y="61" type="line"/>
      <point x="463" y="11"/>
      <point x="227" y="-105"/>
      <point x="227" y="-265" type="curve" smooth="yes"/>
      <point x="227" y="-385"/>
      <point x="341" y="-437"/>
    </contour>
  </outline>
</glyph>
<glyph name="horizontalbar" format="2">
  <advance width="1715"/>
  <unicode hex="2015"/>
  <outline>
    <contour>
      <point x="120.034" y="548" type="line"/>
      <point x="1596.168" y="548" type="line"/>
      <point x="1596.168" y="552" type="line"/>
      <point x="120.034" y="552" type="line"/>
    </contour>
  </outline>
</glyph>
<glyph name="foursuperior" format="2">
  <advance width="861"/>
  <unicode hex="2074"/>
  <outline>
    <contour>
      <point x="296.4" y="919" type="line"/>
      <point x="758.4" y="919" type="line"/>
      <point x="758.4" y="921.4" type="line"/>
      <point x="668.4" y="921.4" type="line"/>
      <point x="668.4" y="1819" type="line"/>
      <point x="488.4" y="1819" type="line"/>
      <point x="32.4" y="1175.8" type="line"/>
      <point x="800.4" y="1175.8" type="line"/>
      <point x="800.4" y="1178.2" type="line"/>
      <point x="37.2" y="1178.2" type="line"/>
      <point x="410.4" y="1703.8" type="line"/>
      <point x="410.4" y="921.4" type="line"/>
      <point x="296.4" y="921.4" type="line"/>
    </contour>
  </outline>
</glyph>
<glyph name="euro" format="2">
  <advance width="1412"/>
  <unicode hex="20AC"/>
  <outline>
    <contour>
      <point x="857" y="-20" type="curve" smooth="yes"/>
      <point x="1119" y="-20"/>
      <point x="1306" y="162"/>
      <point x="1358" y="355" type="curve"/>
      <point x="1354" y="355" type="line"/>
      <point x="1302" y="165"/>
      <point x="1126" y="9"/>
      <point x="942" y="9" type="curve" smooth="yes"/>
      <point x="684" y="9"/>
      <point x="671" y="361"/>
      <point x="671" y="750" type="curve" smooth="yes"/>
      <point x="671" y="1098"/>
      <point x="721" y="1510"/>
      <point x="959" y="1510" type="curve" smooth="yes"/>
      <point x="1137" y="1510"/>
      <point x="1398" y="1391"/>
      <point x="1398" y="1192" type="curve"/>
      <point x="1400" y="1192" type="line"/>
      <point x="1400" y="1262"/>
      <point x="1278" y="1390"/>
      <point x="1186" y="1390" type="curve" smooth="yes"/>
      <point x="1067" y="1390"/>
      <point x="973" y="1291"/>
      <point x="973" y="1181" type="curve" smooth="yes"/>
      <point x="973" y="1061"/>
      <point x="1076" y="967"/>
      <point x="1186" y="967" type="curve" smooth="yes"/>
      <point x="1287" y="967"/>
      <point x="1402" y="1050"/>
      <point x="1402" y="1192" type="curve" smooth="yes"/>
      <point x="1402" y="1386"/>
      <point x="1153" y="1520"/>
      <point x="909" y="1520" type="curve" smooth="yes"/>
      <point x="457" y="1520"/>
      <point x="181" y="1170"/>
      <point x="181" y="750" type="curve" smooth="yes"/>
      <point x="181" y="290"/>
      <point x="465" y="-20"/>
    </contour>
    <contour>
      <point x="50" y="778" type="line"/>
      <point x="930" y="778" type="line"/>
      <point x="930" y="782" type="line"/>
      <point x="50" y="782" type="line"/>
    </contour>
    <contour>
      <point x="50" y="477" type="line"/>
      <point x="930" y="477" type="line"/>
      <point x="930" y="481" type="line"/>
      <point x="50" y="481" type="line"/>
    </contour>
  </outline>
</glyph>
<glyph name="fl" format="2">
  <advance width="1556"/>
  <unicode hex="FB02"/>
  <outline>
    <contour>
      <point x="202" y="0" type="line"/>
      <point x="562" y="0" type="line"/>
      <point x="562" y="1080" type="line" smooth="yes"/>
      <point x="562" y="1334"/>
      <point x="646" y="1516"/>
      <point x="766" y="1516" type="curve" smooth="yes"/>
      <point x="959" y="1516"/>
      <point x="1078" y="1394"/>
      <point x="1078" y="1272" type="curve"/>
      <point x="1080" y="1272" type="line"/>
      <point x="1080" y="1382"/>
      <point x="981" y="1448"/>
      <point x="877" y="1448" type="curve" smooth="yes"/>
      <point x="777" y="1448"/>
      <point x="676" y="1377"/>
      <point x="676" y="1257" type="curve" smooth="yes"/>
      <point x="676" y="1127"/>
      <point x="777" y="1058"/>
      <point x="877" y="1058" type="curve" smooth="yes"/>
      <point x="988" y="1058"/>
      <point x="1082" y="1140"/>
      <point x="1082" y="1272" type="curve" smooth="yes"/>
      <point x="1082" y="1396"/>
      <point x="958" y="1520"/>
      <point x="766" y="1520" type="curve" smooth="yes"/>
      <point x="456" y="1520"/>
      <point x="202" y="1335"/>
      <point x="202" y="1023" type="curve" smooth="yes"/>
    </contour>
    <contour>
      <point x="22" y="0" type="line"/>
      <point x="1528" y="0" type="line"/>
      <point x="1528" y="4" type="line"/>
      <point x="22" y="4" type="line"/>
    </contour>
    <contour>
      <point x="22" y="916" type="line"/>
      <point x="842" y="916" type="line"/>
      <point x="842" y="920" type="line"/>
      <point x="22" y="920" type="line"/>
    </contour>
    <contour>
      <point x="972" y="0" type="line"/>
      <point x="1352" y="0" type="line"/>
      <point x="1352" y="1540" type="line"/>
      <point x="972" y="1460" type="line"/>
    </contour>
  </outline>
</glyph>
<glyph name="five.tosf" format="2">
  <advance width="1400"/>
  <outline>
    <contour>
      <point x="582" y="-525.018" type="curve" smooth="yes"/>
      <point x="934" y="-525.018"/>
      <point x="1229" y="-344.349"/>
      <point x="1229" y="-97.117" type="curve" smooth="yes"/>
      <point x="1229" y="188.15"/>
      <point x="986" y="329.832"/>
      <point x="674" y="329.832" type="curve" smooth="yes"/>
      <point x="392" y="329.832"/>
      <point x="278" y="205.266"/>
      <point x="246" y="134.9" type="curve"/>
      <point x="250" y="134.9" type="line"/>
      <point x="283" y="197.659"/>
      <point x="375" y="293.698"/>
      <point x="520" y="293.698" type="curve" smooth="yes"/>
      <point x="668" y="293.698"/>
      <point x="780" y="120.637"/>
      <point x="780" y="-97.117" type="curve" smooth="yes"/>
      <point x="780" y="-275.885"/>
      <point x="720" y="-513.607"/>
      <point x="522" y="-513.607" type="curve" smooth="yes"/>
      <point x="354" y="-513.607"/>
      <point x="135" y="-419.469"/>
      <point x="135" y="-222.635" type="curve"/>
      <point x="133" y="-222.635" type="line"/>
      <point x="133" y="-279.688"/>
      <point x="252" y="-429.929"/>
      <point x="364" y="-429.929" type="curve" smooth="yes"/>
      <point x="483" y="-429.929"/>
      <point x="598" y="-334.84"/>
      <point x="598" y="-211.224" type="curve" smooth="yes"/>
      <point x="598" y="-78.099"/>
      <point x="494" y="9.382"/>
      <point x="364" y="9.382" type="curve" smooth="yes"/>
      <point x="223" y="9.382"/>
      <point x="131" y="-87.608"/>
      <point x="131" y="-222.635" type="curve" smooth="yes"/>
      <point x="131" y="-408.058"/>
      <point x="328" y="-525.018"/>
    </contour>
    <contour>
      <point x="244" y="134.9" type="line"/>
      <point x="248" y="134.9" type="line"/>
      <point x="248" y="520.961" type="line"/>
      <point x="1160" y="520.961" type="line"/>
      <point x="1160" y="1023.982" type="line"/>
      <point x="1156" y="1023.982" type="line"/>
      <point x="1156" y="920.335" type="line"/>
      <point x="244" y="920.335" type="line"/>
    </contour>
  </outline>
</glyph>
<glyph name="four.osf" format="2">
  <advance width="1368"/>
  <outline>
    <contour>
      <point x="902" y="-1" type="line"/>
      <point x="1350" y="-1" type="line"/>
      <point x="1350" y="3" type="line"/>
      <point x="902" y="3" type="line"/>
    </contour>
    <contour>
      <point x="902" y="3" type="line"/>
      <point x="77" y="3" type="line"/>
      <point x="700" y="757" type="line"/>
      <point x="700" y="-500" type="line"/>
      <point x="1130" y="-500" type="line"/>
      <point x="1130" y="920" type="line"/>
      <point x="830" y="920" type="line"/>
      <point x="70" y="-1" type="line"/>
      <point x="902" y="-1" type="line"/>
    </contour>
  </outline>
</glyph>
<glyph name="germandbls.sc" format="2">
  <advance width="1657"/>
  <outline>
    <contour>
      <point x="216" y="0" type="line"/>
      <point x="646" y="0" type="line"/>
      <point x="646" y="551" type="line" smooth="yes"/>
      <point x="646" y="785"/>
      <point x="694" y="1034"/>
      <point x="902" y="1034" type="curve" smooth="yes"/>
      <point x="980" y="1034"/>
      <point x="1094" y="1007"/>
      <point x="1138" y="988" type="curve"/>
      <point x="852" y="628" type="line"/>
      <point x="989" y="618"/>
      <point x="1181" y="591"/>
      <point x="1282" y="560" type="curve"/>
      <point x="1498" y="822" type="line"/>
      <point x="1457" y="868"/>
      <point x="1129" y="1040"/>
      <point x="882" y="1040" type="curve" smooth="yes"/>
      <point x="556" y="1040"/>
      <point x="216" y="898"/>
      <point x="216" y="572" type="curve" smooth="yes"/>
    </contour>
    <contour>
      <point x="85" y="0" type="line"/>
      <point x="726" y="0" type="line"/>
      <point x="726" y="4" type="line"/>
      <point x="85" y="4" type="line"/>
    </contour>
    <contour>
      <point x="1077" y="-20" type="curve" smooth="yes"/>
      <point x="1289" y="-20"/>
      <point x="1597" y="89"/>
      <point x="1597" y="289" type="curve" smooth="yes"/>
      <point x="1597" y="550"/>
      <point x="1164" y="628"/>
      <point x="852" y="628" type="curve"/>
      <point x="852" y="624" type="line"/>
      <point x="1020" y="624"/>
      <point x="1177" y="467"/>
      <point x="1177" y="299" type="curve" smooth="yes"/>
      <point x="1177" y="151"/>
      <point x="1106" y="-5"/>
      <point x="1008" y="-5" type="curve" smooth="yes"/>
      <point x="892" y="-5"/>
      <point x="739" y="66"/>
      <point x="739" y="221" type="curve"/>
      <point x="737" y="221" type="line"/>
      <point x="737" y="151"/>
      <point x="830" y="70"/>
      <point x="931" y="70" type="curve" smooth="yes"/>
      <point x="1030" y="70"/>
      <point x="1114" y="126"/>
      <point x="1114" y="230" type="curve" smooth="yes"/>
      <point x="1114" y="342"/>
      <point x="1037" y="422"/>
      <point x="936" y="422" type="curve" smooth="yes"/>
      <point x="826" y="422"/>
      <point x="735" y="343"/>
      <point x="735" y="221" type="curve" smooth="yes"/>
      <point x="735" y="66"/>
      <point x="883" y="-20"/>
    </contour>
  </outline>
</glyph>
<glyph name="k.sc" format="2">
  <advance width="1485"/>
  <anchor x="787" y="0" name="bottom"/>
  <anchor x="437" y="0" name="cedilla"/>
  <anchor x="855" y="1020" name="top"/>
  <outline>
    <contour>
      <point x="369" y="244" type="line"/>
      <point x="375" y="244" type="line"/>
      <point x="1203" y="1016" type="line"/>
      <point x="1197" y="1016" type="line"/>
    </contour>
    <contour>
      <point x="85" y="0" type="line"/>
      <point x="715" y="0" type="line"/>
      <point x="715" y="4" type="line"/>
      <point x="85" y="4" type="line"/>
    </contour>
    <contour>
      <point x="216" y="0" type="line"/>
      <point x="646" y="0" type="line"/>
      <point x="646" y="1020" type="line"/>
      <point x="216" y="1020" type="line"/>
    </contour>
    <contour>
      <point x="795" y="0" type="line"/>
      <point x="1465" y="0" type="line"/>
      <point x="1465" y="4" type="line"/>
      <point x="795" y="4" type="line"/>
    </contour>
    <contour>
      <point x="899" y="0" type="line"/>
      <point x="1379" y="0" type="line"/>
      <point x="931" y="766" type="line"/>
      <point x="623" y="479" type="line"/>
    </contour>
    <contour>
      <point x="85" y="1016" type="line"/>
      <point x="795" y="1016" type="line"/>
      <point x="795" y="1020" type="line"/>
      <point x="85" y="1020" type="line"/>
    </contour>
    <contour>
      <point x="985" y="1016" type="line"/>
      <point x="1366" y="1016" type="line"/>
      <point x="1366" y="1020" type="line"/>
      <point x="985" y="1020" type="line"/>
    </contour>
  </outline>
</glyph>
<glyph name="o.sc" format="2">
  <advance width="1339"/>
  <anchor x="669" y="0" name="bottom"/>
  <anchor x="669" y="1020" name="top"/>
  <outline>
    <contour>
      <point x="669" y="-20" type="curve" smooth="yes"/>
      <point x="1005" y="-20"/>
      <point x="1259" y="184"/>
      <point x="1259" y="510" type="curve" smooth="yes"/>
      <point x="1259" y="836"/>
      <point x="986" y="1040"/>
      <point x="669" y="1040" type="curve" smooth="yes"/>
      <point x="352" y="1040"/>
      <point x="80" y="836"/>
      <point x="80" y="510" type="curve" smooth="yes"/>
      <point x="80" y="184"/>
      <point x="333" y="-20"/>
    </contour>
    <contour>
      <point x="669" y="-16" type="curve" smooth="yes"/>
      <point x="531" y="-16"/>
      <point x="509" y="247"/>
      <point x="509" y="510" type="curve" smooth="yes"/>
      <point x="509" y="773"/>
      <point x="551" y="1036"/>
      <point x="669" y="1036" type="curve" smooth="yes"/>
      <point x="787" y="1036"/>
      <point x="830" y="773"/>
      <point x="830" y="510" type="curve" smooth="yes"/>
      <point x="830" y="247"/>
      <point x="807" y="-16"/>
    </contour>
  </outline>
</glyph>
<glyph name="v.sc" format="2">
  <advance width="1238"/>
  <anchor x="666" y="0" name="bottom"/>
  <anchor x="668" y="0" name="cedilla"/>
  <anchor x="714" y="1020" name="top"/>
  <outline>
    <contour>
      <point x="533" y="-28" type="line"/>
      <point x="690" y="-28" type="line"/>
      <point x="1142" y="1020" type="line"/>
      <point x="1137" y="1020" type="line"/>
      <point x="865" y="391" type="line"/>
      <point x="590" y="1020" type="line"/>
      <point x="90" y="1020" type="line"/>
    </contour>
    <contour>
      <point x="0" y="1016" type="line"/>
      <point x="760" y="1016" type="line"/>
      <point x="760" y="1020" type="line"/>
      <point x="0" y="1020" type="line"/>
    </contour>
    <contour>
      <point x="945" y="1016" type="line"/>
      <point x="1238" y="1016" type="line"/>
      <point x="1238" y="1020" type="line"/>
      <point x="945" y="1020" type="line"/>
    </contour>
  </outline>
</glyph>
<glyph name="x.sc" format="2">
  <advance width="1394"/>
  <anchor x="652" y="0" name="bottom"/>
  <anchor x="782" y="1020" name="top"/>
  <outline>
    <contour>
      <point x="825" y="0" type="line"/>
      <point x="1285" y="0" type="line"/>
      <point x="602" y="1020" type="line"/>
      <point x="150" y="1020" type="line"/>
    </contour>
    <contour>
      <point x="30" y="0" type="line"/>
      <point x="395" y="0" type="line"/>
      <point x="395" y="4" type="line"/>
      <point x="30" y="4" type="line"/>
    </contour>
    <contour>
      <point x="197" y="0" type="line"/>
      <point x="202" y="0" type="line"/>
      <point x="684" y="524" type="line"/>
      <point x="679" y="524" type="line"/>
    </contour>
    <contour>
      <point x="660" y="0" type="line"/>
      <point x="1364" y="0" type="line"/>
      <point x="1364" y="4" type="line"/>
      <point x="660" y="4" type="line"/>
    </contour>
    <contour>
      <point x="81" y="1016" type="line"/>
      <point x="760" y="1016" type="line"/>
      <point x="760" y="1020" type="line"/>
      <point x="81" y="1020" type="line"/>
    </contour>
    <contour>
      <point x="759" y="584" type="line"/>
      <point x="765" y="584" type="line"/>
      <point x="1167" y="1016" type="line"/>
      <point x="1161" y="1016" type="line"/>
    </contour>
    <contour>
      <point x="987" y="1016" type="line"/>
      <point x="1313" y="1016" type="line"/>
      <point x="1313" y="1020" type="line"/>
      <point x="987" y="1020" type="line"/>
    </contour>
  </outline>
</glyph>
